HIERARCHY
ROOT Hips
{
	OFFSET 0.000000 0.000000 0.000000 
	CHANNELS 6 Xposition Yposition Zposition Yrotation Zrotation Xrotation 
	JOINT Lumbar
	{
		OFFSET 0.000000 0.000000 0.000000 
		CHANNELS 3 Zrotation Xrotation Yrotation
		JOINT Neck
		{
			OFFSET 0.000000 0.445665 0.000000 
			CHANNELS 3 Zrotation Xrotation Yrotation
			End Site
			{
				OFFSET 0.000000 0.227535 0.000000 
			}
		}
		JOINT RightShoulder
		{
			OFFSET 0.019635 0.377685 0.194865 
			CHANNELS 3 Zrotation Xrotation Yrotation
			JOINT RightElbow
			{
				OFFSET 0.000000 -0.243375 0.000000 
				CHANNELS 2 Zrotation Yrotation
				JOINT RightWrist
				{
					OFFSET 0.000000 -0.264825 0.000000 
					CHANNELS 2 Zrotation Xrotation
					End Site
					{
						OFFSET 0.006600 -0.176220 0.000990 
					}
				}
			}
		}
		JOINT LeftShoulder
		{
			OFFSET 0.019635 0.377685 -0.194865 
			CHANNELS 3 Zrotation Xrotation Yrotation
			JOINT LeftElbow
			{
				OFFSET 0.000000 -0.243375 0.000000 
				CHANNELS 2 Zrotation Yrotation
				JOINT LeftWrist
				{
					OFFSET 0.000000 -0.264825 0.000000 
					CHANNELS 2 Zrotation Xrotation
					End Site
					{
						OFFSET 0.006600 -0.176220 -0.000990 
					}
				}
			}
		}
	}
	JOINT RightHip
	{
		OFFSET 0.052140 -0.069960 0.075570 
		CHANNELS 3 Zrotation Xrotation Yrotation
		JOINT RightKnee
		{
			OFFSET 0.000000 -0.402270 0.000000 
			CHANNELS 1 Zrotation
			JOINT RightAnkle
			{
				OFFSET 0.000000 -0.404085 0.000000 
				CHANNELS 3 Zrotation Xrotation Yrotation
				End Site
				{
					OFFSET 0.204105 -0.089430 0.008415 
				}
			}
		}
	}
	JOINT LeftHip
	{
		OFFSET 0.052140 -0.069960 -0.075570 
		CHANNELS 3 Zrotation Xrotation Yrotation
		JOINT LeftKnee
		{
			OFFSET 0.000000 -0.402270 0.000000 
			CHANNELS 1 Zrotation
			JOINT LeftAnkle
			{
				OFFSET 0.000000 -0.404085 0.000000 
				CHANNELS 3 Zrotation Xrotation Yrotation
				End Site
				{
					OFFSET 0.204105 -0.089430 -0.008415 
				}
			}
		}
	}
}
MOTION
Frames: 14
Frame Time: 0.02
-0.00023 -0.0001 0.00022 22.17057 -22.49234 -6.91087 42.00059 2.92289 -3.52524 -15.80961 -1.42066 -1.25778 73.87857 -100.40916 55.63447 5.78675 105.4601 12.88786 2.71879 53.89458 103.3548 -55.63126 6.47454 -94.79386 11.34935 -0.24458 38.96843 -2.80802 -6.49545 -22.51891 -6.76239 -2.46879 -3.40719 42.75304 9.05257 2.83336 -27.91102 -6.66455 2.51819 3.46031
-0.00017 -9e-05 0.00022 22.1394 -22.50505 -6.90286 42.01409 2.92692 -3.52163 -15.82919 -1.42043 -1.25848 74.1452 -100.4119 55.6344 5.78679 105.48502 12.88512 2.77578 53.89241 103.41515 -55.63125 6.46362 -94.77982 11.34798 -0.25113 38.98236 -2.85202 -6.70088 -22.52415 -6.75806 -2.43503 -3.39302 42.75589 9.06513 2.89588 -27.90913 -6.66389 2.51635 3.45909
-0.00011 -8e-05 0.00021 22.10831 -22.51771 -6.89486 42.02756 2.93094 -3.51801 -15.8487 -1.42021 -1.25919 74.41145 -100.41464 55.63433 5.78682 105.50992 12.88237 2.83269 53.89011 103.47536 -55.63124 6.45275 -94.76576 11.34659 -0.25766 38.99625 -2.89592 -6.90581 -22.52938 -6.75374 -2.40136 -3.3789 42.7587 9.07773 2.95853 -27.90724 -6.66322 2.51448 3.45785
-5e-05 -6e-05 0.00021 22.07724 -22.53038 -6.88687 42.04102 2.93495 -3.5144 -15.86822 -1.41999 -1.25989 74.67733 -100.41738 55.63426 5.78685 105.53477 12.87964 2.88951 53.88792 103.53553 -55.63123 6.44186 -94.75175 11.34523 -0.2642 39.01015 -2.9398 -7.11063 -22.5346 -6.74941 -2.3677 -3.36478 42.76153 9.09027 3.02091 -27.90536 -6.66256 2.51264 3.45662
2e-05 -5e-05 0.00021 22.0461 -22.54308 -6.87886 42.05453 2.93896 -3.5108 -15.88781 -1.41977 -1.26059 74.94345 -100.42011 55.63418 5.78689 105.55965 12.87691 2.94637 53.8859 103.59581 -55.63121 6.43091 -94.73778 11.3439 -0.27077 39.02409 -2.98377 -7.3159 -22.53984 -6.74508 -2.33395 -3.35063 42.7644 9.10275 3.08307 -27.90348 -6.6619 2.51082 3.45541
8e-05 -3e-05 0.0002 22.0151 -22.55568 -6.87088 42.06792 2.94301 -3.50717 -15.90717 -1.41954 -1.2613 75.20994 -100.42288 55.63411 5.78692 105.58458 12.87413 3.00338 53.88302 103.65585 -55.6312 6.42021 -94.72357 11.34238 -0.2772 39.03785 -3.02752 -7.5201 -22.54503 -6.74078 -2.30044 -3.33657 42.7671 9.1156 3.14675 -27.90159 -6.6612 2.50885 3.45411
0.00014 -2e-05 0.0002 21.98386 -22.56846 -6.86284 42.08151 2.94697 -3.50359 -15.92697 -1.41934 -1.262 75.47537 -100.42557 55.63404 5.78695 105.60936 12.87145 3.06003 53.88188 103.71633 -55.63119 6.40902 -94.70983 11.34125 -0.2839 39.05197 -3.07166 -7.72623 -22.55032 -6.73642 -2.26648 -3.32233 42.77014 9.12768 3.20725 -27.89972 -6.6606 2.5072 3.45299
0.0002 -0 0.00019 21.95284 -22.58108 -6.85487 42.09493 2.95101 -3.49996 -15.94636 -1.4191 -1.2627 75.74183 -100.42831 55.63397 5.78698 105.63429 12.86868 3.11701 53.87914 103.77639 -55.63118 6.39828 -94.69568 11.33976 -0.29036 39.06576 -3.11544 -7.93057 -22.55552 -6.73211 -2.23293 -3.30826 42.77286 9.14048 3.27076 -27.89783 -6.6599 2.50525 3.45171
0.00026 1e-05 0.00018 21.92206 -22.59348 -6.84697 42.10812 2.95519 -3.49626 -15.96526 -1.41886 -1.2634 76.00952 -100.43123 55.6339 5.78701 105.6594 12.86582 3.17442 53.8744 103.83599 -55.63117 6.38809 -94.68091 11.33783 -0.2965 39.07916 -3.15882 -8.13289 -22.56061 -6.72787 -2.19989 -3.2944 42.7752 9.15414 3.33775 -27.89591 -6.6591 2.50292 3.45023
0.00032 2e-05 0.00019 21.88981 -22.60711 -6.83861 42.12256 2.95866 -3.49293 -15.98701 -1.41875 -1.26412 76.27006 -100.43347 55.63381 5.78705 105.68345 12.86353 3.22946 53.88101 103.89842 -55.63116 6.37474 -94.66937 11.33843 -0.30443 39.09482 -3.20461 -8.34734 -22.56634 -6.72325 -2.16397 -3.27933 42.77978 9.16279 3.3841 -27.89415 -6.65891 2.50276 3.44988
0.00039 4e-05 0.00017 21.86071 -22.61815 -6.83122 42.13442 2.96359 -3.48887 -16.00273 -1.41829 -1.2648 76.54564 -100.4369 55.63376 5.78708 105.70975 12.85999 3.2894 53.8638 103.95476 -55.63116 6.36806 -94.65126 11.33369 -0.3086 39.1057 -3.24526 -8.53585 -22.57071 -6.71943 -2.1341 -3.26681 42.77961 9.18207 3.47436 -27.89207 -6.65744 2.49802 3.44713
0.00048 6e-05 0.00011 21.84006 -22.62198 -6.82648 42.13857 2.9727 -3.48237 -16.00196 -1.41751 -1.26538 76.86354 -100.44578 55.63381 5.78705 105.74221 12.85337 3.36385 53.77984 103.99523 -55.63114 6.37978 -94.61292 11.31425 -0.30214 39.10354 -3.272 -8.65515 -22.57148 -6.71781 -2.12113 -3.26138 42.76647 9.23032 3.6833 -27.88906 -6.65238 2.48077 3.43786
0.00057 7e-05 3e-05 21.82261 -22.62321 -6.82271 42.14024 2.98323 -3.4752 -15.99511 -1.41625 -1.26593 77.1964 -100.45546 55.6339 5.78701 105.77696 12.84538 3.44296 53.67241 104.02938 -55.63114 6.39816 -94.5684 11.28943 -0.29197 39.09657 -3.29353 -8.74796 -22.57088 -6.71699 -2.11419 -3.25851 42.74856 9.28926 3.93651 -27.88575 -6.64604 2.45893 3.42617
0.00066 9e-05 -5e-05 21.80381 -22.6257 -6.81848 42.14347 2.99296 -3.46864 -15.99103 -1.41477 -1.26649 77.52166 -100.46335 55.63397 5.78698 105.81062 12.83785 3.51929 53.5764 104.06597 -55.63116 6.41339 -94.52818 11.26718 -0.28369 39.09176 -3.31733 -8.85168 -22.57083 -6.71579 -2.10428 -3.25439 42.7328 9.34352 4.17086 -27.88262 -6.64032 2.43917 3.41553
